<svg width="40" height="41" viewBox="0 0 40 41" fill="none" xmlns="http://www.w3.org/2000/svg">
<path d="M20.0493 10.3379C14.3896 10.3379 9.80762 14.9249 9.80762 20.5796C9.80762 26.2393 14.3946 30.8213 20.0493 30.8213C25.709 30.8213 30.291 26.2343 30.291 20.5796C30.291 14.9199 25.704 10.3379 20.0493 10.3379ZM20.0493 27.2272C16.3754 27.2272 13.4017 24.2518 13.4017 20.5796C13.4017 16.9074 16.3771 13.932 20.0493 13.932C23.7216 13.932 26.6969 16.9074 26.6969 20.5796C26.6986 24.2518 23.7232 27.2272 20.0493 27.2272Z" fill="#445964"/>
<path d="M28.2715 0.754286C24.5993 0.582981 15.5035 0.591297 11.8279 0.754286C8.59805 0.905633 5.74907 1.68565 3.45225 3.98247C-0.38631 7.82103 0.10432 12.9934 0.10432 20.5791C0.10432 28.3427 -0.3281 33.3954 3.45225 37.1757C7.30578 41.0276 12.553 40.5236 20.0489 40.5236C27.7393 40.5236 30.3937 40.5286 33.1129 39.4758C36.8101 38.0405 39.6009 34.7359 39.8737 28.8001C40.0466 25.1261 40.0367 16.032 39.8737 12.3565C39.5444 5.34958 35.784 1.10022 28.2715 0.754286ZM34.0842 34.6361C31.5679 37.1524 28.0769 36.9279 20.0006 36.9279C11.6849 36.9279 8.35024 37.051 5.91704 34.6111C3.11463 31.822 3.62189 27.3431 3.62189 20.5525C3.62189 11.3635 2.67888 4.74586 11.9011 4.27352C14.0199 4.19868 14.6436 4.17373 19.9774 4.17373L20.0522 4.22363C28.9151 4.22363 35.8688 3.29559 36.2862 12.5161C36.381 14.62 36.4027 15.252 36.4027 20.5774C36.401 28.7967 36.5573 32.1513 34.0842 34.6361Z" fill="#445964"/>
<path d="M30.696 12.3256C32.0178 12.3256 33.0893 11.2541 33.0893 9.93234C33.0893 8.61057 32.0178 7.53906 30.696 7.53906C29.3742 7.53906 28.3027 8.61057 28.3027 9.93234C28.3027 11.2541 29.3742 12.3256 30.696 12.3256Z" fill="#445964"/>
</svg>
